<svg width="513" height="458" xmlns="http://www.w3.org/2000/svg" xmlns:xlink="http://www.w3.org/1999/xlink"><g transform="scale(1)"><g transform="translate(8,99)"><linearGradient id="0-gradient" y1="0%" y2="0%" x1="0%" x2="100%"><stop offset="0%" stop-color="#43464A"/><stop offset="7%" stop-color="rgb(23,184,218)"/><stop offset="93%" stop-color="rgb(23,184,218)"/><stop offset="100%" stop-color="#43464A"/></linearGradient><rect x="3" width="43.640208532197654" y="0.730355735046146" height="239.26964426495385" style="fill: url(&quot;#0-gradient&quot;); stroke: rgb(67, 70, 74); stroke-width: 3;"/><text x="120.36517786752307" y="-19.820104266098827" text-anchor="middle" fill="rgb(207,152,110)" transform="rotate(90)" font-family="Optima" font-size="12">The Happiness Project</text></g><g transform="translate(8,99)"><linearGradient id="1-gradient" y1="0%" y2="0%" x1="0%" x2="100%"><stop offset="0%" stop-color="#43464A"/><stop offset="7%" stop-color="rgb(224,217,208)"/><stop offset="93%" stop-color="rgb(224,217,208)"/><stop offset="100%" stop-color="#43464A"/></linearGradient><rect x="46.640208532197654" width="47.10830457449152" y="6.811623023563982" height="233.18837697643602" style="fill: url(&quot;#1-gradient&quot;); stroke: rgb(67, 70, 74); stroke-width: 3;"/><text x="123.40581151178199" y="-65.19436081944342" text-anchor="middle" fill="rgb(54,30,23)" transform="rotate(90)" font-family="Verdana" font-size="10">The Wolf and the Watchman</text></g><g transform="translate(8,99)"><linearGradient id="2-gradient" y1="0%" y2="0%" x1="0%" x2="100%"><stop offset="0%" stop-color="#43464A"/><stop offset="7%" stop-color="rgb(250,250,250)"/><stop offset="93%" stop-color="rgb(250,250,250)"/><stop offset="100%" stop-color="#43464A"/></linearGradient><rect x="93.74851310668917" width="67.91688082825463" y="35.115882147147914" height="204.88411785285209" style="fill: url(&quot;#2-gradient&quot;); stroke: rgb(67, 70, 74); stroke-width: 3;"/><text x="137.55794107357394" y="-122.70695352081648" text-anchor="middle" fill="rgb(71,71,69)" transform="rotate(90)" font-family="Garamond" font-size="20">Devotions</text></g><g transform="translate(8,99)"><linearGradient id="3-gradient" y1="0%" y2="0%" x1="0%" x2="100%"><stop offset="0%" stop-color="#43464A"/><stop offset="7%" stop-color="rgb(43,104,120)"/><stop offset="93%" stop-color="rgb(43,104,120)"/><stop offset="100%" stop-color="#43464A"/></linearGradient><rect x="161.6653939349438" width="42.44805051765914" y="21.027821921855264" height="218.97217807814474" style="fill: url(&quot;#3-gradient&quot;); stroke: rgb(67, 70, 74); stroke-width: 3;"/><text x="130.51391096092763" y="-177.8894191937734" text-anchor="middle" fill="rgb(227,228,226)" transform="rotate(90)" font-family="Copperplate" font-size="14">The Silent Patient</text></g><g transform="translate(8,99)"><linearGradient id="4-gradient" y1="0%" y2="0%" x1="0%" x2="100%"><stop offset="0%" stop-color="#43464A"/><stop offset="7%" stop-color="rgb(191,193,191)"/><stop offset="93%" stop-color="rgb(191,193,191)"/><stop offset="100%" stop-color="#43464A"/></linearGradient><rect x="204.11344445260295" width="26.299728320728377" y="3.215983510595663" height="236.78401648940434" style="fill: url(&quot;#4-gradient&quot;); stroke: rgb(67, 70, 74); stroke-width: 3;"/><text x="121.60799175529783" y="-212.26330861296714" text-anchor="middle" fill="rgb(23,24,24)" transform="rotate(90)" font-family="Garamond" font-size="16">Before the Ruins</text></g><g transform="translate(8,99)"><linearGradient id="5-gradient" y1="0%" y2="0%" x1="0%" x2="100%"><stop offset="0%" stop-color="#43464A"/><stop offset="7%" stop-color="rgb(202,183,124)"/><stop offset="93%" stop-color="rgb(202,183,124)"/><stop offset="100%" stop-color="#43464A"/></linearGradient><rect x="230.41317277333133" width="29.76782436302227" y="14.767536153583734" height="225.23246384641627" style="fill: url(&quot;#5-gradient&quot;); stroke: rgb(67, 70, 74); stroke-width: 3;"/><text x="127.38376807679187" y="-240.29708495484246" text-anchor="middle" fill="rgb(60,47,19)" transform="rotate(90)" font-family="Didot" font-size="20">Katie Gale</text></g><g transform="translate(8,99)"><linearGradient id="6-gradient" y1="0%" y2="0%" x1="0%" x2="100%"><stop offset="0%" stop-color="#43464A"/><stop offset="7%" stop-color="rgb(137,200,79)"/><stop offset="93%" stop-color="rgb(137,200,79)"/><stop offset="100%" stop-color="#43464A"/></linearGradient><rect x="260.1809971363536" width="42.44805051765911" y="37.574004230234124" height="202.42599576976588" style="fill: url(&quot;#6-gradient&quot;); stroke: rgb(67, 70, 74); stroke-width: 3;"/><text x="138.78700211511705" y="-276.40502239518315" text-anchor="middle" fill="rgb(29,35,114)" transform="rotate(90)" font-family="Garamond" font-size="14">The Night Watchman</text></g><g transform="translate(8,99)"><linearGradient id="7-gradient" y1="0%" y2="0%" x1="0%" x2="100%"><stop offset="0%" stop-color="#43464A"/><stop offset="7%" stop-color="rgb(22,106,154)"/><stop offset="93%" stop-color="rgb(22,106,154)"/><stop offset="100%" stop-color="#43464A"/></linearGradient><rect x="302.6290476540127" width="29.767824363022214" y="22.52096127565224" height="217.47903872434776" style="fill: url(&quot;#7-gradient&quot;); stroke: rgb(67, 70, 74); stroke-width: 3;"/><text x="131.2604806378261" y="-312.5129598355238" text-anchor="middle" fill="rgb(230,87,54)" transform="rotate(90)" font-family="Garamond" font-size="20">Carry</text></g><g transform="translate(8,99)"><linearGradient id="8-gradient" y1="0%" y2="0%" x1="0%" x2="100%"><stop offset="0%" stop-color="#43464A"/><stop offset="7%" stop-color="rgb(227,214,196)"/><stop offset="93%" stop-color="rgb(227,214,196)"/><stop offset="100%" stop-color="#43464A"/></linearGradient><rect x="332.3968720170349" width="16.97922020706369" y="14.114943996274746" height="225.88505600372525" style="fill: url(&quot;#8-gradient&quot;); stroke: rgb(67, 70, 74); stroke-width: 3;"/><text x="127.05747199813737" y="-335.88648212056677" text-anchor="middle" fill="rgb(74,61,104)" transform="rotate(90)" font-family="Copperplate" font-size="16">The Color Purple</text></g><g transform="translate(8,99)"><linearGradient id="9-gradient" y1="0%" y2="0%" x1="0%" x2="100%"><stop offset="0%" stop-color="#43464A"/><stop offset="7%" stop-color="rgb(207,90,79)"/><stop offset="93%" stop-color="rgb(207,90,79)"/><stop offset="100%" stop-color="#43464A"/></linearGradient><rect x="349.3760922240986" width="22.83163227843454" y="2.847914786582635" height="237.15208521341737" style="fill: url(&quot;#9-gradient&quot;); stroke: rgb(67, 70, 74); stroke-width: 3;"/><text x="121.42395739329132" y="-355.7919083633159" text-anchor="middle" fill="rgb(245,220,214)" transform="rotate(90)" font-family="Lucida Bright" font-size="18">The Brittanys</text></g><g transform="translate(8,99)"><linearGradient id="10-gradient" y1="0%" y2="0%" x1="0%" x2="100%"><stop offset="0%" stop-color="#43464A"/><stop offset="7%" stop-color="rgb(55,46,186)"/><stop offset="93%" stop-color="rgb(55,46,186)"/><stop offset="100%" stop-color="#43464A"/></linearGradient><rect x="372.20772450253315" width="40.17211248990384" y="32.56256987338077" height="207.43743012661923" style="fill: url(&quot;#10-gradient&quot;); stroke: rgb(67, 70, 74); stroke-width: 3;"/><text x="136.28128493669038" y="-387.2937807474851" text-anchor="middle" fill="rgb(240,149,124)" transform="rotate(90)" font-family="Lucida Bright" font-size="14">The Vanishing Half</text></g><g transform="translate(8,99)"><linearGradient id="11-gradient" y1="0%" y2="0%" x1="0%" x2="100%"><stop offset="0%" stop-color="#43464A"/><stop offset="7%" stop-color="rgb(14,182,196)"/><stop offset="93%" stop-color="rgb(14,182,196)"/><stop offset="100%" stop-color="#43464A"/></linearGradient><rect x="412.379836992437" width="42.44805051765911" y="17.060259540448072" height="222.93974045955193" style="fill: url(&quot;#11-gradient&quot;); stroke: rgb(67, 70, 74); stroke-width: 3;"/><text x="128.53012977022405" y="-428.60386225126655" text-anchor="middle" fill="rgb(215,232,166)" transform="rotate(90)" font-family="Lucida Bright" font-size="15">The kiss quotient</text></g><g transform="translate(8,99)"><linearGradient id="12-gradient" y1="0%" y2="0%" x1="0%" x2="100%"><stop offset="0%" stop-color="#43464A"/><stop offset="7%" stop-color="rgb(28,52,62)"/><stop offset="93%" stop-color="rgb(28,52,62)"/><stop offset="100%" stop-color="#43464A"/></linearGradient><rect x="454.8278875100961" width="40.17211248990384" y="30.384448614686363" height="209.61555138531364" style="fill: url(&quot;#12-gradient&quot;); stroke: rgb(67, 70, 74); stroke-width: 3;"/><text x="135.19222430734317" y="-469.913943755048" text-anchor="middle" fill="rgb(190,110,114)" transform="rotate(90)" font-family="Lucida Bright" font-size="8">This Is Your Mind on Plants</text></g></g><g transform="scale(1)"><path d="M80,452.219c-2.977,0-5.781-1.668-7.156-4.422l-40-80c-1.977-3.953-0.375-8.758,3.578-10.734c3.945-1.969,8.758-0.375,10.734,3.578L72,410.332v-46.113c0-4.418,3.578-8,8-8s8,3.582,8,8v80c0,3.711-2.555,6.934-6.164,7.785C81.227,452.149,80.609,452.219,80,452.219z" fill="#868491"/><path d="M432.219,452.219c-0.609,0-1.227-0.07-1.836-0.215c-3.609-0.852-6.164-4.074-6.164-7.785v-80c0-4.418,3.578-8,8-8s8,3.582,8,8v46.113l24.844-49.691c1.984-3.953,6.781-5.547,10.734-3.578c3.953,1.977,5.555,6.781,3.578,10.734l-40,80C438,450.551,435.195,452.219,432.219,452.219z" fill="#868491"/><path d="M504.438,372.219H8c-4.418,0-8-3.582-8-8v-16c0-4.418,3.582-8,8-8h496.438c4.418,0,8,3.582,8,8v16C512.438,368.637,508.856,372.219,504.438,372.219z" fill="#E6BE8A"/><path d="M0,356.219v8c0,4.418,3.582,8,8,8h496.438c4.418,0,8-3.582,8-8v-8H0z" fill="#C9A07C"/></g></svg>